<?xml version="1.0" encoding="UTF-8"?>
<svg id="Camada_1" xmlns="http://www.w3.org/2000/svg" version="1.1" viewBox="0 0 32 10.62">
  <!-- Generator: Adobe Illustrator 30.5.1, SVG Export Plug-In . SVG Version: 2.1.4 Build 3)  -->
  <defs>
    <style>
      .st0 {
        fill: #12a064;
      }

      .st1 {
        fill: #11a265;
      }

      .st2 {
        fill: #07a464;
      }

      .st3 {
        fill: #08a463;
      }

      .st4 {
        fill: #0ba665;
      }

      .st5 {
        fill: #0ea364;
      }

      .st6 {
        fill: #07a665;
      }

      .st7 {
        fill: #0da463;
      }

      .st8 {
        fill: #08a263;
      }

      .st9 {
        fill: #0ca365;
      }

      .st10 {
        fill: #20aa6c;
      }

      .st11 {
        fill: #20aa6d;
      }
    </style>
  </defs>
  <g>
    <path class="st11" d="M1.65,6.25c.24.82.75,1.52,1.47,1.98v1.52c-.44-.1-.83-.31-1.19-.57-.39-.28-.73-.63-1-1.03-.44-.61-.74-1.37-.86-2.11C.02,5.75,0,5.46,0,5.17c.02-1.03.32-2.03.89-2.89.3-.45.66-.85,1.08-1.18.59-.46,1.27-.79,2-.96,1.39-.33,2.79-.04,3.97.74.32.22.61.46.87.75.22.23.41.47.58.74l-1.27.96c-.33-.52-.77-.95-1.3-1.26-.39-.22-.8-.38-1.24-.44-1.02-.14-2.03.19-2.79.87-.26.23-.49.49-.68.8-.37.6-.57,1.25-.59,1.96,0,.34.05.67.14.99Z"/>
    <g>
      <path class="st10" d="M2.33,9.84c.57.25,1.17.38,1.79.36.27,0,.53-.04.8-.1.8-.18,1.6-.6,2.2-1.16.39-.36.71-.78.95-1.25.4-.75.6-1.57.62-2.41h-2.35s.06-.06.09-.09l.49-.37.68-.53h2.45s.06.82.06.82c0,.55-.07,1.09-.2,1.62-.25.94-.68,1.72-1.35,2.42l-.19.18c-.2.19-.41.35-.65.5-1.34.85-2.97,1.04-4.46.49-.32-.13-.64-.27-.93-.48Z"/>
      <g>
        <path d="M6.49,9l-.4.26v-2.99c.31-.22.6-.45.89-.7.04-.02.1.03.12.06v2.82c-.19.19-.39.37-.61.54Z"/>
        <path d="M5.8,9.41c-.33.16-.66.28-1.03.36v-2.65c.32-.17.62-.36.93-.56.04-.01.08.03.1.06v2.8Z"/>
        <path d="M4.47,9.81c-.33.06-.71.05-1.03,0v-2.04c.33-.14.63-.28.94-.45.04,0,.07.02.09.05v.52s0,1.93,0,1.93Z"/>
      </g>
    </g>
  </g>
  <g>
    <g>
      <path class="st5" d="M14.54,5.7v2.24s-.31,0-.31,0l-1.12-1.72v1.72s-.33,0-.33,0v-2.24s.33,0,.33,0l.99,1.51c.04.06.05.12.12.16v-1.67s.32,0,.32,0Z"/>
      <path class="st9" d="M28.12,7.93c-.11.02-.2.01-.31,0l-1.12-1.72v1.72s-.32,0-.32,0v-2.24s.33,0,.33,0l1.1,1.7v-1.7s.33,0,.33,0v2.23Z"/>
      <path class="st6" d="M22.73,7.66c.43.05.81-.25.83-.68h-.82s0-.25,0-.25h1.14c.01.29-.04.57-.21.8-.26.35-.68.5-1.12.4-.38-.08-.69-.4-.8-.8-.11-.43,0-.89.33-1.19.22-.2.5-.29.8-.27.42.02.78.27.92.67h-.37c-.08-.16-.2-.28-.37-.34-.42-.14-.86.08-.98.51-.06.22-.06.45.02.66.1.28.33.45.63.49Z"/>
      <polygon class="st7" points="18.34 6.95 17.54 6.95 17.54 7.67 18.43 7.67 18.42 7.94 17.22 7.95 17.22 5.7 18.43 5.7 18.43 5.97 17.54 5.97 17.54 6.68 18.34 6.68 18.34 6.95"/>
      <polygon class="st8" points="31.9 6.94 31.1 6.95 31.1 7.67 31.98 7.67 31.98 7.94 30.78 7.95 30.78 5.7 32 5.7 32 5.97 31.1 5.97 31.1 6.68 31.89 6.68 31.9 6.94"/>
      <polygon class="st2" points="25.62 6.95 24.84 6.95 24.84 7.67 25.72 7.67 25.72 7.94 24.52 7.94 24.52 6.52 24.51 5.7 25.72 5.7 25.72 5.97 24.84 5.97 24.84 6.68 25.62 6.68 25.62 6.95"/>
      <path class="st1" d="M16.04,7.94c-.11.02-.2.01-.32,0v-1.97s-.59,0-.59,0v-.27s1.49,0,1.49,0v.27s-.59,0-.59,0v1.96Z"/>
      <path class="st4" d="M29.6,7.94c-.11.02-.2,0-.32,0v-1.97s-.58,0-.58,0v-.27s1.48,0,1.48,0v.27s-.59,0-.59,0v1.96Z"/>
      <path class="st3" d="M20.18,7.67c.02.1.01.18,0,.28h-1.09s0-2.24,0-2.24h.33s0,1.97,0,1.97h.76Z"/>
      <rect class="st0" x="19.8" y="6.66" width="2.25" height=".33" transform="translate(14.1 27.75) rotate(-89.99)"/>
      <rect class="st8" x="10.95" y="6.66" width="2.25" height=".33" transform="translate(5.25 18.89) rotate(-89.97)"/>
    </g>
    <g>
      <path d="M12.91,4.66c.38-.02.64-.32.67-.69h-.82s0-.25,0-.25h1.15c.01.24-.01.48-.13.69-.24.43-.73.62-1.21.51-.44-.1-.78-.49-.83-.97-.04-.39.08-.78.39-1.03.36-.3.88-.34,1.29-.11.21.12.35.29.42.53h-.37c-.1-.24-.32-.37-.58-.39-.35-.02-.66.16-.77.49-.08.23-.09.49,0,.73.12.32.43.51.79.49Z"/>
      <path d="M18.18,4.52c-.15.42-.69.52-1.1.35-.23-.1-.37-.3-.37-.54h.34c0,.14.07.24.19.29.25.11.58.04.64-.21.04-.14,0-.28-.12-.36-.32-.2-1.02-.14-1.04-.75,0-.26.12-.48.37-.58.22-.09.47-.09.69-.01.24.08.4.29.4.53h-.33c-.02-.13-.09-.23-.21-.28-.14-.05-.29-.05-.42.01s-.18.18-.17.31.09.24.23.28l.47.15c.13.04.26.09.35.2.14.17.16.39.08.6Z"/>
      <polygon points="19.58 4.92 19.26 4.92 19.26 2.95 18.66 2.95 18.66 2.69 20.17 2.68 20.17 2.95 19.58 2.96 19.58 4.92"/>
      <path d="M22.65,3.43c-.13-.46-.53-.75-1.01-.77-.42-.02-.8.19-1,.56-.19.35-.2.78-.02,1.14.17.34.49.56.88.59.47.04.88-.19,1.08-.59.14-.29.16-.62.07-.92ZM22.33,4.13c-.09.3-.36.5-.62.53-.32.04-.62-.08-.77-.36-.17-.29-.17-.66-.01-.95.14-.26.4-.4.68-.4.28,0,.54.15.67.41.12.23.14.51.06.77Z"/>
      <path d="M15.48,2.7h-.35s-.81,2.23-.81,2.23h.34s.17-.48.17-.48h.95s.17.48.17.48h.33s-.8-2.23-.8-2.23ZM14.93,4.17l.38-1.05.37,1.04h-.75Z"/>
    </g>
  </g>
</svg>